<svg width="35" height="35" viewBox="0 0 35 35" fill="none" xmlns="http://www.w3.org/2000/svg">
<circle cx="17.5" cy="17.5" r="17.5" fill="#F5DCE3"/>
<g filter="url(#filter0_d_1965_137)">
<path d="M7.72 24.06C7.46667 24.06 7.23333 23.9667 7.02 23.78C6.82 23.6067 6.64667 23.3933 6.5 23.14C6.36667 22.8867 6.26667 22.64 6.2 22.4C6.06667 21.8667 5.96667 21.2533 5.9 20.56C5.84667 19.8667 5.82 19.1333 5.82 18.36C5.82 17.52 5.84667 16.66 5.9 15.78C5.96667 14.9 6.05333 14.0533 6.16 13.24C6.26667 12.4133 6.38667 11.6667 6.52 11C6.66667 10.3333 6.81333 9.78667 6.96 9.36C6.97333 9.32 7 9.3 7.04 9.3C7.09333 9.28667 7.14 9.28 7.18 9.28C7.52667 9.28 7.79333 9.33333 7.98 9.44C8.16667 9.54667 8.31333 9.74 8.42 10.02C8.38 10.1933 8.30667 10.5133 8.2 10.98C8.10667 11.4333 7.99333 11.9867 7.86 12.64C7.74 13.2933 7.62 14.0067 7.5 14.78C7.38 15.54 7.27333 16.3133 7.18 17.1C7.1 17.8867 7.04667 18.6467 7.02 19.38C7.02 19.5133 7.01333 19.6533 7 19.8C7 19.9467 7 20.1 7 20.26C7 20.7133 7.02 21.1733 7.06 21.64C7.11333 22.0933 7.20667 22.4733 7.34 22.78C7.47333 23.0867 7.67333 23.24 7.94 23.24C8.07333 23.24 8.19333 23.2 8.3 23.12C8.40667 23.04 8.48 22.9533 8.52 22.86C8.56 22.7533 8.60667 22.7 8.66 22.7C8.74 22.7 8.78 22.7667 8.78 22.9V22.94C8.78 23.1267 8.73333 23.3133 8.64 23.5C8.54667 23.7 8.4 23.8467 8.2 23.94C8.04 24.02 7.88 24.06 7.72 24.06ZM15.1 23.18C14.7133 23.18 14.3133 23.1267 13.9 23.02C13.5 22.9133 13.1267 22.76 12.78 22.56C12.18 22.2133 11.5933 21.7733 11.02 21.24C10.4467 20.6933 9.93333 20.1 9.48 19.46C9.04 18.8067 8.69333 18.16 8.44 17.52C8.30667 17.1733 8.2 16.8533 8.12 16.56C8.04 16.2533 8 15.96 8 15.68C8 15.2933 8.09333 14.92 8.28 14.56C8.48 14.1867 8.80667 13.7933 9.26 13.38C9.58 13.1 9.98 12.78 10.46 12.42C10.9533 12.06 11.4867 11.7 12.06 11.34C12.6467 10.98 13.22 10.6467 13.78 10.34C14.3533 10.0333 14.88 9.78667 15.36 9.6C15.8533 9.41333 16.2467 9.32 16.54 9.32H16.6C16.96 9.32 17.14 9.37333 17.14 9.48C17.14 9.56 17.0133 9.63333 16.76 9.7C16.5067 9.75333 16.1333 9.9 15.64 10.14C15.1467 10.38 14.6 10.6733 14 11.02C13.4133 11.3667 12.8267 11.74 12.24 12.14C11.6667 12.5267 11.16 12.9067 10.72 13.28C10.28 13.6533 9.98 13.98 9.82 14.26C9.71333 14.4467 9.62667 14.64 9.56 14.84C9.49333 15.04 9.46 15.2533 9.46 15.48C9.46 15.92 9.6 16.4 9.88 16.92C10.4267 17.8933 11.06 18.8067 11.78 19.66C12.5 20.5 13.2533 21.1333 14.04 21.56C14.2 21.6533 14.44 21.7733 14.76 21.92C15.0933 22.0533 15.3933 22.12 15.66 22.12C15.82 22.12 15.9533 22.08 16.06 22C16.18 21.92 16.2467 21.78 16.26 21.58V21.5C16.26 21.1667 16.1533 20.8133 15.94 20.44C15.74 20.0667 15.5533 19.7533 15.38 19.5C15.2467 19.2733 15.18 19.1133 15.18 19.02C15.18 18.94 15.2133 18.9 15.28 18.9C15.44 18.9 15.6333 19.0267 15.86 19.28C15.9933 19.4133 16.1333 19.58 16.28 19.78C16.4267 19.9667 16.5533 20.16 16.66 20.36C16.9533 20.8933 17.1 21.3533 17.1 21.74C17.1 22.2333 16.9 22.6 16.5 22.84C16.1133 23.0667 15.6467 23.18 15.1 23.18ZM19.8489 24.06C19.5956 24.06 19.3622 23.9667 19.1489 23.78C18.9489 23.6067 18.7756 23.3933 18.6289 23.14C18.4956 22.8867 18.3956 22.64 18.3289 22.4C18.1956 21.8667 18.0956 21.2533 18.0289 20.56C17.9756 19.8667 17.9489 19.1333 17.9489 18.36C17.9489 17.52 17.9756 16.66 18.0289 15.78C18.0956 14.9 18.1822 14.0533 18.2889 13.24C18.3956 12.4133 18.5156 11.6667 18.6489 11C18.7956 10.3333 18.9422 9.78667 19.0889 9.36C19.1022 9.32 19.1289 9.3 19.1689 9.3C19.2222 9.28667 19.2689 9.28 19.3089 9.28C19.6556 9.28 19.9222 9.33333 20.1089 9.44C20.2956 9.54667 20.4422 9.74 20.5489 10.02C20.5089 10.1933 20.4356 10.5133 20.3289 10.98C20.2356 11.4333 20.1222 11.9867 19.9889 12.64C19.8689 13.2933 19.7489 14.0067 19.6289 14.78C19.5089 15.54 19.4022 16.3133 19.3089 17.1C19.2289 17.8867 19.1756 18.6467 19.1489 19.38C19.1489 19.5133 19.1422 19.6533 19.1289 19.8C19.1289 19.9467 19.1289 20.1 19.1289 20.26C19.1289 20.7133 19.1489 21.1733 19.1889 21.64C19.2422 22.0933 19.3356 22.4733 19.4689 22.78C19.6022 23.0867 19.8022 23.24 20.0689 23.24C20.2022 23.24 20.3222 23.2 20.4289 23.12C20.5356 23.04 20.6089 22.9533 20.6489 22.86C20.6889 22.7533 20.7356 22.7 20.7889 22.7C20.8689 22.7 20.9089 22.7667 20.9089 22.9V22.94C20.9089 23.1267 20.8622 23.3133 20.7689 23.5C20.6756 23.7 20.5289 23.8467 20.3289 23.94C20.1689 24.02 20.0089 24.06 19.8489 24.06ZM27.2289 23.18C26.8422 23.18 26.4422 23.1267 26.0289 23.02C25.6289 22.9133 25.2556 22.76 24.9089 22.56C24.3089 22.2133 23.7222 21.7733 23.1489 21.24C22.5756 20.6933 22.0622 20.1 21.6089 19.46C21.1689 18.8067 20.8222 18.16 20.5689 17.52C20.4356 17.1733 20.3289 16.8533 20.2489 16.56C20.1689 16.2533 20.1289 15.96 20.1289 15.68C20.1289 15.2933 20.2222 14.92 20.4089 14.56C20.6089 14.1867 20.9356 13.7933 21.3889 13.38C21.7089 13.1 22.1089 12.78 22.5889 12.42C23.0822 12.06 23.6156 11.7 24.1889 11.34C24.7756 10.98 25.3489 10.6467 25.9089 10.34C26.4822 10.0333 27.0089 9.78667 27.4889 9.6C27.9822 9.41333 28.3756 9.32 28.6689 9.32H28.7289C29.0889 9.32 29.2689 9.37333 29.2689 9.48C29.2689 9.56 29.1422 9.63333 28.8889 9.7C28.6356 9.75333 28.2622 9.9 27.7689 10.14C27.2756 10.38 26.7289 10.6733 26.1289 11.02C25.5422 11.3667 24.9556 11.74 24.3689 12.14C23.7956 12.5267 23.2889 12.9067 22.8489 13.28C22.4089 13.6533 22.1089 13.98 21.9489 14.26C21.8422 14.4467 21.7556 14.64 21.6889 14.84C21.6222 15.04 21.5889 15.2533 21.5889 15.48C21.5889 15.92 21.7289 16.4 22.0089 16.92C22.5556 17.8933 23.1889 18.8067 23.9089 19.66C24.6289 20.5 25.3822 21.1333 26.1689 21.56C26.3289 21.6533 26.5689 21.7733 26.8889 21.92C27.2222 22.0533 27.5222 22.12 27.7889 22.12C27.9489 22.12 28.0822 22.08 28.1889 22C28.3089 21.92 28.3756 21.78 28.3889 21.58V21.5C28.3889 21.1667 28.2822 20.8133 28.0689 20.44C27.8689 20.0667 27.6822 19.7533 27.5089 19.5C27.3756 19.2733 27.3089 19.1133 27.3089 19.02C27.3089 18.94 27.3422 18.9 27.4089 18.9C27.5689 18.9 27.7622 19.0267 27.9889 19.28C28.1222 19.4133 28.2622 19.58 28.4089 19.78C28.5556 19.9667 28.6822 20.16 28.7889 20.36C29.0822 20.8933 29.2289 21.3533 29.2289 21.74C29.2289 22.2333 29.0289 22.6 28.6289 22.84C28.2422 23.0667 27.7756 23.18 27.2289 23.18Z" fill="black"/>
</g>
<defs>
<filter id="filter0_d_1965_137" x="5.82" y="9.27997" width="24.4489" height="15.78" filterUnits="userSpaceOnUse" color-interpolation-filters="sRGB">
<feFlood flood-opacity="0" result="BackgroundImageFix"/>
<feColorMatrix in="SourceAlpha" type="matrix" values="0 0 0 0 0 0 0 0 0 0 0 0 0 0 0 0 0 0 127 0" result="hardAlpha"/>
<feOffset dx="1" dy="1"/>
<feComposite in2="hardAlpha" operator="out"/>
<feColorMatrix type="matrix" values="0 0 0 0 1 0 0 0 0 1 0 0 0 0 1 0 0 0 0.56 0"/>
<feBlend mode="normal" in2="BackgroundImageFix" result="effect1_dropShadow_1965_137"/>
<feBlend mode="normal" in="SourceGraphic" in2="effect1_dropShadow_1965_137" result="shape"/>
</filter>
</defs>
</svg>
