<svg width="207" height="174" viewBox="0 0 207 174" fill="none" xmlns="http://www.w3.org/2000/svg">
<g clip-path="url(#clip0_6001_3652)">
<path d="M102.78 118.26L88.1699 114.87L92.6899 95.3899L103.46 97.8899L106.43 102.58L102.78 118.26Z" fill="white" stroke="#CC4C6E" stroke-width="2" stroke-linejoin="round"/>
<path d="M102.58 101.68L106.43 102.58L103.46 97.8899L102.58 101.68Z" fill="white" stroke="#CC4C6E" stroke-width="2" stroke-linejoin="round"/>
<path d="M117.41 51.75L114.51 50.97L112.42 53.12" stroke="#36C7D6" stroke-width="2" stroke-miterlimit="10" stroke-linecap="round"/>
<path d="M108.22 57.4199L1.78998 166.42C1.59965 166.475 1.4269 166.579 1.28848 166.721C1.15006 166.863 1.05069 167.038 1 167.23C1 169.99 27.86 172.23 61 172.23C94.14 172.23 121 169.99 121 167.23L127.12 60.41" stroke="#CC4C6E" stroke-width="2" stroke-miterlimit="10" stroke-linecap="round" stroke-dasharray="6.01 6.01"/>
<path d="M127.29 57.4499L127.46 54.4499L124.57 53.6699" stroke="#36C7D6" stroke-width="2" stroke-miterlimit="10" stroke-linecap="round"/>
<path opacity="0.15" d="M61 172.26C94.1371 172.26 121 170.021 121 167.26C121 164.499 94.1371 162.26 61 162.26C27.8629 162.26 1 164.499 1 167.26C1 170.021 27.8629 172.26 61 172.26Z" fill="#D785A1"/>
<path d="M203.969 59.34C203.969 59.34 163.649 68.55 120.079 56.88C76.5093 45.21 46.1992 17.06 46.1992 17.06C46.1992 17.06 86.5192 7.85004 130.089 19.52C173.659 31.19 203.969 59.34 203.969 59.34Z" fill="#D785A1" stroke="#CC4C6E" stroke-width="2" stroke-miterlimit="10"/>
<path d="M122.649 47.2599C149.192 54.237 176.423 58.2614 203.849 59.2599C201.849 57.4199 172.139 30.8199 130.089 19.5599C88.0394 8.2999 49.0294 16.4799 46.3594 17.0599C70.6005 29.9033 96.1855 40.0314 122.649 47.2599Z" fill="white" stroke="#CC4C6E" stroke-width="2" stroke-linejoin="round"/>
<path d="M128.411 25.79C139.063 28.6983 149.952 30.656 160.951 31.64C163.091 19.97 151.621 7.17999 134.621 2.63999C117.621 -1.90001 101.291 3.42999 97.3105 14.64C107.327 19.2683 117.735 22.9995 128.411 25.79V25.79Z" fill="white" stroke="#CC4C6E" stroke-width="2" stroke-miterlimit="10"/>
<path d="M128.411 25.79L122.641 47.3" stroke="#CC4C6E" stroke-width="2" stroke-miterlimit="10"/>
<path d="M109.55 19.76L76.6504 31.4" stroke="#CC4C6E" stroke-width="2" stroke-miterlimit="10"/>
<path d="M147.76 30L170.42 56.53" stroke="#CC4C6E" stroke-width="2" stroke-miterlimit="10"/>
<path d="M147.08 15.6799C143.379 12.3264 138.917 9.92399 134.08 8.67993" stroke="#CC4C6E" stroke-width="2" stroke-miterlimit="10" stroke-linecap="round"/>
<path d="M152.14 23.1199C151.572 21.5166 150.763 20.0093 149.74 18.6499" stroke="#CC4C6E" stroke-width="2" stroke-miterlimit="10" stroke-linecap="round"/>
</g>
<defs>
<clipPath id="clip0_6001_3652">
<rect width="206.03" height="173.26" fill="white"/>
</clipPath>
</defs>
</svg>
