<svg width="160" height="184" viewBox="0 0 160 184" fill="none" xmlns="http://www.w3.org/2000/svg">
<path opacity="0.15" d="M63.9297 184C91.2678 184 113.43 181.761 113.43 179C113.43 176.239 91.2678 174 63.9297 174C36.5916 174 14.4297 176.239 14.4297 179C14.4297 181.761 36.5916 184 63.9297 184Z" fill="#D785A1"/>
<path d="M77 1H5C2.79086 1 1 2.79086 1 5V67C1 69.2091 2.79086 71 5 71H77C79.2091 71 81 69.2091 81 67V5C81 2.79086 79.2091 1 77 1Z" fill="white" stroke="#CC4C6E" stroke-width="2" stroke-miterlimit="10"/>
<path d="M58.9495 15.71C58.7966 15.491 58.5932 15.3121 58.3564 15.1885C58.1197 15.0649 57.8566 15.0002 57.5895 15H24.4296C24.1625 15.0002 23.8994 15.0649 23.6626 15.1885C23.4258 15.3121 23.2223 15.491 23.0695 15.71C18.7995 21.82 16.0195 28.91 16.0195 36C16.0195 43.09 18.8095 50.18 23.0695 56.29C23.2223 56.509 23.4258 56.6879 23.6626 56.8115C23.8994 56.9351 24.1625 56.9998 24.4296 57H57.5895C57.8566 56.9998 58.1197 56.9351 58.3564 56.8115C58.5932 56.6879 58.7966 56.509 58.9495 56.29C63.2195 50.17 65.9995 43.09 65.9995 36C65.9995 28.91 63.2095 21.82 58.9495 15.71Z" fill="white" stroke="#CC4C6E" stroke-width="2" stroke-miterlimit="10"/>
<path d="M33.0605 26H29.0605V38H33.0605V26Z" fill="#D785A1" stroke="#CC4C6E" stroke-width="2" stroke-miterlimit="10"/>
<path d="M53.0605 26H49.0605V38H53.0605V26Z" fill="#D785A1" stroke="#CC4C6E" stroke-width="2" stroke-miterlimit="10"/>
<path d="M41.0605 43C41.8562 43 42.6193 43.3161 43.1819 43.8787C43.7445 44.4413 44.0605 45.2044 44.0605 46V51H38.0605V46C38.0605 45.2044 38.3766 44.4413 38.9392 43.8787C39.5018 43.3161 40.2649 43 41.0605 43Z" fill="#D785A1" stroke="#CC4C6E" stroke-width="2" stroke-miterlimit="10"/>
<path d="M8 10C9.10457 10 10 9.10457 10 8C10 6.89543 9.10457 6 8 6C6.89543 6 6 6.89543 6 8C6 9.10457 6.89543 10 8 10Z" stroke="#CC4C6E" stroke-width="2" stroke-miterlimit="10"/>
<path d="M74 10C75.1046 10 76 9.10457 76 8C76 6.89543 75.1046 6 74 6C72.8954 6 72 6.89543 72 8C72 9.10457 72.8954 10 74 10Z" stroke="#CC4C6E" stroke-width="2" stroke-miterlimit="10"/>
<path d="M8 66C9.10457 66 10 65.1046 10 64C10 62.8954 9.10457 62 8 62C6.89543 62 6 62.8954 6 64C6 65.1046 6.89543 66 8 66Z" stroke="#CC4C6E" stroke-width="2" stroke-miterlimit="10"/>
<path d="M74 66C75.1046 66 76 65.1046 76 64C76 62.8954 75.1046 62 74 62C72.8954 62 72 62.8954 72 64C72 65.1046 72.8954 66 74 66Z" stroke="#CC4C6E" stroke-width="2" stroke-miterlimit="10"/>
<path d="M61.0996 157.567L69.5849 149.082L73.8275 153.324C74.0151 153.512 74.1205 153.766 74.1205 154.032C74.1205 154.297 74.0151 154.551 73.8275 154.739L66.7565 161.81C66.5689 161.997 66.3146 162.103 66.0494 162.103C65.7842 162.103 65.5298 161.997 65.3422 161.81L61.0996 157.567Z" fill="#F287AB" stroke="#CC4C6E" stroke-width="2" stroke-miterlimit="10"/>
<path d="M57.5598 125.75L37.7598 145.55C40.4015 148.104 43.4034 150.257 46.6698 151.94C49.7498 153.494 52.4897 155.646 54.7297 158.27L70.2898 142.71C67.6659 140.47 65.5141 137.73 63.9597 134.65C62.2727 131.387 60.1166 128.388 57.5598 125.75V125.75Z" fill="#D785A1" stroke="#CC4C6E" stroke-width="2" stroke-miterlimit="10"/>
<path d="M26.4573 125.757L23.6289 128.585L36.3568 141.313L39.1853 138.485L26.4573 125.757Z" fill="white" stroke="#CC4C6E" stroke-width="2" stroke-miterlimit="10"/>
<path d="M40.5901 111.603L37.7617 114.431L50.4896 127.159L53.3181 124.331L40.5901 111.603Z" fill="white" stroke="#CC4C6E" stroke-width="2" stroke-miterlimit="10"/>
<path d="M56.1529 121.501L33.5255 144.129C33.1349 144.519 33.1349 145.153 33.5255 145.543L34.9397 146.957C35.3302 147.348 35.9634 147.348 36.3539 146.957L58.9813 124.33C59.3718 123.939 59.3718 123.306 58.9813 122.916L57.5671 121.501C57.1766 121.111 56.5434 121.111 56.1529 121.501Z" fill="#D785A1" stroke="#CC4C6E" stroke-width="2" stroke-miterlimit="10"/>
<path opacity="0.15" d="M60.1995 128.77C59.3759 127.725 58.4981 126.723 57.5695 125.77L37.7695 145.57C38.7228 146.499 39.7242 147.377 40.7695 148.2L60.1995 128.77Z" fill="#CC4C6E"/>
<path d="M70.998 142.01L54.0274 158.98C53.6369 159.371 53.6369 160.004 54.0274 160.395L55.4416 161.809C55.8322 162.199 56.4653 162.199 56.8558 161.809L73.8264 144.838C74.2169 144.448 74.2169 143.815 73.8264 143.424L72.4122 142.01C72.0217 141.619 71.3885 141.619 70.998 142.01Z" fill="#D785A1" stroke="#CC4C6E" stroke-width="2" stroke-miterlimit="10"/>
<path opacity="0.15" d="M69.5868 149.083L61.1016 157.568L63.93 160.396L72.4153 151.911L69.5868 149.083Z" fill="#D785A1"/>
<path d="M76.6598 156.15L68.1698 164.64L66.7598 161.81L73.8298 154.74L76.6598 156.15Z" fill="#F287AB" stroke="#CC4C6E" stroke-width="2" stroke-linejoin="round"/>
<path d="M78.0699 158.98L70.9999 166.05L68.1699 164.64L76.6599 156.15L78.0699 158.98Z" fill="#F287AB" stroke="#CC4C6E" stroke-width="2" stroke-linejoin="round"/>
<path d="M78.075 158.983L71.0039 166.054L73.1252 168.176L80.1963 161.104L78.075 158.983Z" fill="#F287AB" stroke="#CC4C6E" stroke-width="2" stroke-linejoin="round"/>
<path d="M81.6091 163.93L75.9491 169.59L73.1191 168.17L80.1891 161.1L81.6091 163.93Z" fill="#F287AB" stroke="#CC4C6E" stroke-width="2" stroke-linejoin="round"/>
<path d="M81.6041 163.93L75.9473 169.587L78.0686 171.708L83.7254 166.052L81.6041 163.93Z" fill="#F287AB" stroke="#CC4C6E" stroke-width="2" stroke-linejoin="round"/>
<path d="M85.1403 168.88L80.9003 173.12L78.0703 171.71L83.7303 166.05L85.1403 168.88Z" fill="#F287AB" stroke="#CC4C6E" stroke-width="2" stroke-linejoin="round"/>
<path d="M83.7305 171.71C83.7305 171.71 99.0005 185.12 114.34 173.12C125.34 164.52 129.811 151.28 113.671 118.38C93.2405 76.7099 134.43 56.9999 158.51 86.4499" stroke="#CC4C6E" stroke-width="2" stroke-miterlimit="10" stroke-linecap="round"/>
<path d="M27.7402 93.1799V119.53" stroke="#CC4C6E" stroke-width="2" stroke-miterlimit="10" stroke-linecap="round"/>
<path d="M37.7402 80.1799V106.53" stroke="#CC4C6E" stroke-width="2" stroke-miterlimit="10" stroke-linecap="round"/>
<path d="M47.7402 95.1799V111.53" stroke="#CC4C6E" stroke-width="2" stroke-miterlimit="10" stroke-linecap="round"/>
</svg>
