<svg width="74" height="74" viewBox="0 0 74 74" fill="none" xmlns="http://www.w3.org/2000/svg">
<path opacity="0.8" fill-rule="evenodd" clip-rule="evenodd" d="M32.0052 20.4167V18.5C32.0052 15.7386 34.2438 13.5 37.0052 13.5C39.7666 13.5 42.0052 15.7386 42.0052 18.5V20.4167H32.0052ZM24.6719 21.5834V20.4167V18.5C24.6719 11.6885 30.1937 6.16666 37.0052 6.16666C43.8167 6.16666 49.3385 11.6885 49.3385 18.5V20.4167V21.5834H55.9892C57.889 21.5834 59.4742 23.0345 59.6416 24.9269L62.6514 58.9473C63.2206 65.3799 58.152 70.9167 51.6942 70.9167H22.3094C15.8517 70.9167 10.7831 65.3799 11.3522 58.9473L14.3621 24.9269C14.5295 23.0345 16.1147 21.5834 18.0145 21.5834H24.6719ZM18.657 59.5936L21.3711 28.9167H52.6326L55.3466 59.5935C55.5364 61.7378 53.8468 63.5834 51.6942 63.5834H22.3094C20.1569 63.5834 18.4673 61.7378 18.657 59.5936Z" fill="#CACACA"/>
</svg>
