<svg width="29" height="28" viewBox="0 0 29 28" fill="none" xmlns="http://www.w3.org/2000/svg">
<g opacity="0.5">
<circle cx="14.6372" cy="13.9106" r="13.9106" fill="#4E6297"/>
<path d="M20.8973 9.61134C20.8973 8.56984 19.9783 7.65088 18.9368 7.65088H11.0337C9.99221 7.65088 9.07324 8.56984 9.07324 9.61134V17.5144C9.07324 18.5559 9.99221 19.4749 11.0337 19.4749H15.0159V15.0026H13.5455V13.0421H15.0159V12.2457C15.0159 10.8979 15.9961 9.73386 17.2214 9.73386H18.8143V11.6943H17.2214C17.0376 11.6943 16.8538 11.8781 16.8538 12.2457V13.0421H18.8143V15.0026H16.8538V19.4749H18.9368C19.9783 19.4749 20.8973 18.5559 20.8973 17.5144V9.61134Z" fill="white"/>
</g>
</svg>
