<?xml version="1.0" encoding="utf-8"?>
<!-- Svg Vector Icons : http://www.onlinewebfonts.com/icon -->
<!DOCTYPE svg PUBLIC "-//W3C//DTD SVG 1.1//EN" "http://www.w3.org/Graphics/SVG/1.1/DTD/svg11.dtd">
<svg version="1.1" xmlns="http://www.w3.org/2000/svg" xmlns:xlink="http://www.w3.org/1999/xlink" x="0px" y="0px" viewBox="0 0 1000 1000" enable-background="new 0 0 1000 1000" xml:space="preserve">
<metadata> Svg Vector Icons : http://www.onlinewebfonts.com/icon </metadata>
<g><path d="M517,973.3l-17,11.3l-17-11.3l-13.4-9.5C226.7,791.2,111.9,623.7,107.2,616.6l-0.6-0.9C-6.5,440.5,0,307.6,25.4,226.9C52.7,140,106.3,94.2,115.1,87.1C172.5,39.5,234,15.4,297.8,15.4C387,15.4,458.5,63,500,99.2C541.5,63,613,15.4,702.2,15.4c63.8,0,125.3,24.1,182.8,71.7c8.8,7.1,62.3,53,89.7,139.9c25.4,80.6,31.9,213.5-81.1,388.7l-0.6,0.9c-4.8,7-119.6,174.5-362.5,347.2L517,973.3z"/></g>
</svg>