<?xml version="1.0" encoding="utf-8"?>
<!-- Svg Vector Icons : http://www.onlinewebfonts.com/icon -->
<!DOCTYPE svg PUBLIC "-//W3C//DTD SVG 1.1//EN" "http://www.w3.org/Graphics/SVG/1.1/DTD/svg11.dtd">
<svg version="1.1" xmlns="http://www.w3.org/2000/svg" xmlns:xlink="http://www.w3.org/1999/xlink" x="0px" y="0px" viewBox="0 0 1000 1000" enable-background="new 0 0 1000 1000" xml:space="preserve">
<metadata> Svg Vector Icons : http://www.onlinewebfonts.com/icon </metadata>
<g><path d="M516.9,973.3L500,984.6l-16.9-11.3l-13.4-9.5C226.7,791.2,111.9,623.7,107.1,616.7l-0.6-0.9C-6.5,440.5,0,307.6,25.4,227c27.3-87,80.8-132.8,89.7-139.9C172.5,39.6,234,15.4,297.9,15.4c89.1,0,160.6,47.5,202.1,83.8C541.5,63,613,15.4,702.1,15.4c63.8,0,125.4,24.1,182.8,71.7c8.8,7.1,62.4,52.9,89.7,139.9c25.4,80.7,31.9,213.6-81.1,388.8l-0.6,0.9c-4.7,7-119.5,174.5-362.5,347.2L516.9,973.3L516.9,973.3z M192.5,559.3C198,567.2,298,708.8,500,858.7c201.7-149.7,301.7-291,307.5-299.5c166.1-258,22.1-384.5,13-392.1l-0.8-0.7c-38.6-32-78.1-48.3-117.5-48.3c-90.5,0-160.8,84.5-161.4,85.3l-15.5,19.3l-25.5,35.6l-25-35.6l-15.4-19.3c-0.6-0.7-70.6-85.3-161.4-85.3c-39.3,0-78.9,16.2-117.5,48.3l-0.9,0.8c-9.9,8.3-152.4,134.9,13.1,392L192.5,559.3z"/></g>
</svg>