<svg width="29" height="28" viewBox="0 0 29 28" fill="none" xmlns="http://www.w3.org/2000/svg">
<g opacity="0.5">
<circle cx="14.227" cy="13.9106" r="13.9106" fill="url(#paint0_linear_5664_680)"/>
<path d="M18.8035 8.34625H10.3448C9.38974 8.34625 8.66211 9.07389 8.66211 10.0289V18.4876C8.66211 19.4426 9.38974 20.1703 10.3448 20.1703H18.8035C19.7585 20.1703 20.4861 19.4426 20.4861 18.4876V10.0289C20.4861 9.07389 19.7585 8.34625 18.8035 8.34625ZM14.5741 17.8055C16.5296 17.8055 18.1213 16.2593 18.1213 14.3947C18.1213 14.0764 18.0759 13.7125 17.9849 13.4397H18.9854V18.2602C18.9854 18.4876 18.8035 18.715 18.5306 18.715H10.6176C10.3902 18.715 10.1629 18.5331 10.1629 18.2602V13.3942H11.2088C11.1179 13.7125 11.0724 14.0309 11.0724 14.3492C11.0269 16.2593 12.6186 17.8055 14.5741 17.8055ZM14.5741 16.4412C13.3008 16.4412 12.3003 15.4407 12.3003 14.2128C12.3003 12.9849 13.3008 11.9844 14.5741 11.9844C15.8475 11.9844 16.848 12.9849 16.848 14.2128C16.848 15.4861 15.8475 16.4412 14.5741 16.4412ZM18.9399 11.5751C18.9399 11.848 18.7125 12.0754 18.4397 12.0754H17.1663C16.8934 12.0754 16.6661 11.848 16.6661 11.5751V10.3472C16.6661 10.0744 16.8934 9.84699 17.1663 9.84699H18.4397C18.7125 9.84699 18.9399 10.0744 18.9399 10.3472V11.5751Z" fill="white"/>
</g>
<defs>
<linearGradient id="paint0_linear_5664_680" x1="6.22842" y1="24.6913" x2="24.66" y2="5.56425" gradientUnits="userSpaceOnUse">
<stop stop-color="#EEA054"/>
<stop offset="0.502762" stop-color="#D64763"/>
<stop offset="1" stop-color="#B62A99"/>
</linearGradient>
</defs>
</svg>
