<svg width="29" height="28" viewBox="0 0 29 28" fill="none" xmlns="http://www.w3.org/2000/svg">
<g opacity="0.5">
<circle cx="14.3628" cy="13.9106" r="13.9106" fill="#7C509A"/>
<path d="M18.7123 7.33514C16.0613 6.82888 13.3083 6.82888 10.6573 7.33514C9.48471 7.58828 8.00626 9.00582 7.75135 10.1196C7.29252 12.2966 7.29252 14.5241 7.75135 16.7011C8.05724 17.8149 9.5357 19.2324 10.6573 19.4855C10.7083 19.4855 10.7592 19.5362 10.7592 19.5868V22.7763C10.7592 22.9281 10.9632 23.0294 11.0651 22.8775L12.5946 21.3081C12.5946 21.3081 13.8181 20.0424 14.0221 19.8399C14.0221 19.8399 14.073 19.7893 14.124 19.7893C15.6535 19.8399 17.2339 19.688 18.7633 19.4349C19.9359 19.1818 21.4143 17.7642 21.6692 16.6504C22.1281 14.4735 22.1281 12.2459 21.6692 10.069C21.3634 9.00582 19.8849 7.58828 18.7123 7.33514ZM18.7633 16.853C18.5084 17.3592 18.2025 17.7642 17.6927 18.0174C17.5398 18.068 17.3868 18.1186 17.2339 18.1692C17.0299 18.1186 16.877 18.068 16.7241 18.0174C15.0927 17.3592 13.5632 16.4479 12.3397 15.1316C11.6769 14.3722 11.1161 13.5116 10.6573 12.6003C10.4534 12.1447 10.2494 11.7397 10.0965 11.284C9.94355 10.879 10.1985 10.474 10.4534 10.1702C10.7083 9.86648 11.0142 9.66397 11.371 9.51209C11.6259 9.36021 11.8808 9.46146 12.0848 9.66397C12.4926 10.1702 12.9005 10.6765 13.2064 11.2334C13.4103 11.5878 13.3593 11.9928 13.0024 12.2459C12.9005 12.2966 12.8495 12.3472 12.7475 12.4484C12.6965 12.4991 12.5946 12.5497 12.5436 12.6509C12.4416 12.8028 12.4416 12.9547 12.4926 13.1066C12.9005 14.271 13.6652 15.1823 14.8378 15.6885C15.0417 15.7898 15.1946 15.8404 15.4495 15.8404C15.8064 15.7898 15.9593 15.3848 16.2142 15.1823C16.4692 14.9798 16.775 14.9798 17.0809 15.1316C17.3358 15.2835 17.5907 15.486 17.8966 15.6885C18.1515 15.891 18.4064 16.0429 18.6613 16.2454C18.8143 16.3467 18.8653 16.5998 18.7633 16.853ZM16.6221 13.056C16.5201 13.056 16.5711 13.056 16.6221 13.056C16.4182 13.056 16.3672 12.9547 16.3162 12.8028C16.3162 12.7016 16.3162 12.5497 16.2652 12.4484C16.2142 12.2459 16.1123 12.0434 15.9084 11.8915C15.8064 11.8409 15.7044 11.7903 15.6025 11.7397C15.4495 11.689 15.3476 11.689 15.1946 11.689C15.0417 11.6384 14.9907 11.5372 14.9907 11.3853C14.9907 11.284 15.1436 11.1828 15.2456 11.1828C16.0613 11.2334 16.6731 11.689 16.775 12.6509C16.775 12.7016 16.775 12.8028 16.775 12.8534C16.775 12.9547 16.7241 13.056 16.6221 13.056ZM16.1123 10.8284C15.8574 10.7271 15.6025 10.6259 15.2966 10.5752C15.1946 10.5752 15.0417 10.5246 14.9397 10.5246C14.7868 10.5246 14.6848 10.4234 14.7358 10.2715C14.7358 10.1196 14.8378 10.0184 14.9907 10.069C15.5005 10.1196 15.9593 10.2209 16.4182 10.4234C17.3358 10.879 17.8457 11.6384 17.9986 12.6509C17.9986 12.7016 17.9986 12.7522 17.9986 12.8028C17.9986 12.9041 17.9986 13.0053 17.9986 13.1572C17.9986 13.2078 17.9986 13.2585 17.9986 13.3091C17.9476 13.5116 17.5907 13.5622 17.5398 13.3091C17.5398 13.2585 17.4888 13.1572 17.4888 13.1066C17.4888 12.6509 17.3868 12.1953 17.1829 11.7903C16.877 11.3346 16.5201 11.0309 16.1123 10.8284ZM18.8653 13.866C18.7123 13.866 18.6104 13.7141 18.6104 13.5622C18.6104 13.2585 18.5594 12.9547 18.5084 12.6509C18.3045 11.0309 16.979 9.7146 15.3985 9.46146C15.1436 9.41084 14.8887 9.41084 14.6848 9.36021C14.5319 9.36021 14.3279 9.36021 14.277 9.1577C14.226 9.00582 14.3789 8.85394 14.5319 8.85394C14.5828 8.85394 14.6338 8.85394 14.6338 8.85394C16.7241 8.90457 14.7358 8.85394 14.6338 8.85394C16.775 8.90457 18.5594 10.3221 18.9163 12.4484C18.9672 12.8028 19.0182 13.1572 19.0182 13.5622C19.1202 13.7141 19.0182 13.866 18.8653 13.866Z" fill="white"/>
</g>
</svg>
